<mxfile host="Electron" modified="2024-09-05T13:44:40.065Z" agent="Mozilla/5.0 (Windows NT 10.0; Win64; x64) AppleWebKit/537.36 (KHTML, like Gecko) draw.io/24.2.5 Chrome/120.0.6099.109 Electron/28.1.0 Safari/537.36" etag="R8lm22vvmfMHG6MJgfcW" version="24.2.5" type="device">
  <diagram id="p3_AFmmiRs9ltn2NUt0f" name="get_all(DiaryModelクラス)">
    <mxGraphModel dx="1036" dy="606" grid="1" gridSize="10" guides="1" tooltips="1" connect="1" arrows="1" fold="1" page="1" pageScale="1" pageWidth="827" pageHeight="1169" math="0" shadow="0">
      <root>
        <mxCell id="0" />
        <mxCell id="1" parent="0" />
        <mxCell id="Mo3wTbmHzz3XNZ9_9kQ--22" value="" style="edgeStyle=orthogonalEdgeStyle;rounded=0;orthogonalLoop=1;jettySize=auto;html=1;" parent="1" source="Mo3wTbmHzz3XNZ9_9kQ--2" edge="1">
          <mxGeometry relative="1" as="geometry">
            <mxPoint x="400" y="425" as="targetPoint" />
          </mxGeometry>
        </mxCell>
        <mxCell id="Mo3wTbmHzz3XNZ9_9kQ--2" value="開始" style="strokeWidth=2;html=1;shape=mxgraph.flowchart.start_1;whiteSpace=wrap;" parent="1" vertex="1">
          <mxGeometry x="365" y="315" width="70" height="40" as="geometry" />
        </mxCell>
        <mxCell id="Mo3wTbmHzz3XNZ9_9kQ--23" value="" style="edgeStyle=orthogonalEdgeStyle;rounded=0;orthogonalLoop=1;jettySize=auto;html=1;" parent="1" edge="1">
          <mxGeometry relative="1" as="geometry">
            <mxPoint x="400" y="485" as="sourcePoint" />
            <mxPoint x="400" y="555" as="targetPoint" />
          </mxGeometry>
        </mxCell>
        <mxCell id="n2LZ5gIZD89XffDAsdNL-1" value="&lt;b style=&quot;&quot;&gt;&lt;font style=&quot;&quot;&gt;&lt;font style=&quot;font-size: 18px;&quot;&gt;初期化メソッド&lt;/font&gt;&lt;/font&gt;&lt;/b&gt;&lt;div&gt;&lt;font style=&quot;font-size: 14px;&quot;&gt;クラス：DiaryModelクラス&lt;/font&gt;&lt;/div&gt;&lt;div&gt;&lt;div style=&quot;font-size: 14px;&quot;&gt;&lt;font style=&quot;font-size: 14px;&quot;&gt;継承： BaseModelクラス&lt;/font&gt;&lt;/div&gt;&lt;/div&gt;&lt;div style=&quot;font-size: 14px;&quot;&gt;&lt;font style=&quot;font-size: 14px;&quot;&gt;&lt;br&gt;&lt;/font&gt;&lt;/div&gt;&lt;div style=&quot;font-size: 14px;&quot;&gt;&lt;font style=&quot;font-size: 14px;&quot;&gt;クラスの役割&lt;/font&gt;&lt;/div&gt;&lt;div style=&quot;font-size: 14px;&quot;&gt;&lt;font style=&quot;font-size: 14px;&quot;&gt;Dairyテーブルの操作用クラス。&lt;/font&gt;&lt;/div&gt;&lt;div style=&quot;font-size: 14px;&quot;&gt;&lt;font style=&quot;font-size: 14px;&quot;&gt;&lt;br&gt;&lt;/font&gt;&lt;/div&gt;&lt;div style=&quot;font-size: 14px;&quot;&gt;&lt;font style=&quot;font-size: 14px;&quot;&gt;メソッドの役割&lt;/font&gt;&lt;/div&gt;&lt;div style=&quot;font-size: 14px;&quot;&gt;&lt;font style=&quot;font-size: 14px;&quot;&gt;Dairyテーブルから一覧データ取得。&lt;/font&gt;&lt;/div&gt;" style="text;html=1;align=left;verticalAlign=top;whiteSpace=wrap;rounded=0;fillColor=#f5f5f5;fontColor=#333333;strokeColor=#666666;" parent="1" vertex="1">
          <mxGeometry x="20" y="20" width="340" height="180" as="geometry" />
        </mxCell>
        <mxCell id="n2LZ5gIZD89XffDAsdNL-2" value="変数をNoneで初期化" style="rounded=1;whiteSpace=wrap;html=1;" parent="1" vertex="1">
          <mxGeometry x="300" y="426" width="200" height="60" as="geometry" />
        </mxCell>
        <mxCell id="c6J2E1PBe4xBJ-rvOWvV-9" value="" style="edgeStyle=orthogonalEdgeStyle;rounded=0;orthogonalLoop=1;jettySize=auto;html=1;" parent="1" source="n2LZ5gIZD89XffDAsdNL-3" target="c6J2E1PBe4xBJ-rvOWvV-8" edge="1">
          <mxGeometry relative="1" as="geometry" />
        </mxCell>
        <mxCell id="n2LZ5gIZD89XffDAsdNL-3" value="self.connect()" style="shape=process;whiteSpace=wrap;html=1;backgroundOutline=1;" parent="1" vertex="1">
          <mxGeometry x="320" y="555" width="160" height="60" as="geometry" />
        </mxCell>
        <mxCell id="c6J2E1PBe4xBJ-rvOWvV-1" style="rounded=0;orthogonalLoop=1;jettySize=auto;html=1;entryX=1;entryY=0.5;entryDx=0;entryDy=0;exitX=-0.006;exitY=0.387;exitDx=0;exitDy=0;exitPerimeter=0;endArrow=none;endFill=0;" parent="1" source="c6J2E1PBe4xBJ-rvOWvV-2" edge="1">
          <mxGeometry relative="1" as="geometry">
            <mxPoint x="480" y="585" as="targetPoint" />
          </mxGeometry>
        </mxCell>
        <mxCell id="c6J2E1PBe4xBJ-rvOWvV-2" value="DB接続を確立" style="text;html=1;align=left;verticalAlign=top;whiteSpace=wrap;rounded=0;fillColor=#f5f5f5;fontColor=#333333;strokeColor=#666666;" parent="1" vertex="1">
          <mxGeometry x="535" y="590" width="95" height="25" as="geometry" />
        </mxCell>
        <mxCell id="c6J2E1PBe4xBJ-rvOWvV-3" value="self.close()" style="shape=process;whiteSpace=wrap;html=1;backgroundOutline=1;" parent="1" vertex="1">
          <mxGeometry x="320" y="840" width="160" height="60" as="geometry" />
        </mxCell>
        <mxCell id="c6J2E1PBe4xBJ-rvOWvV-4" style="rounded=0;orthogonalLoop=1;jettySize=auto;html=1;entryX=1;entryY=0.5;entryDx=0;entryDy=0;exitX=-0.006;exitY=0.387;exitDx=0;exitDy=0;exitPerimeter=0;endArrow=none;endFill=0;" parent="1" source="c6J2E1PBe4xBJ-rvOWvV-5" edge="1">
          <mxGeometry relative="1" as="geometry">
            <mxPoint x="480" y="870" as="targetPoint" />
          </mxGeometry>
        </mxCell>
        <mxCell id="c6J2E1PBe4xBJ-rvOWvV-5" value="DB接続を閉じる" style="text;html=1;align=left;verticalAlign=top;whiteSpace=wrap;rounded=0;fillColor=#f5f5f5;fontColor=#333333;strokeColor=#666666;" parent="1" vertex="1">
          <mxGeometry x="535" y="875" width="95" height="25" as="geometry" />
        </mxCell>
        <mxCell id="c6J2E1PBe4xBJ-rvOWvV-6" value="" style="edgeStyle=orthogonalEdgeStyle;rounded=0;orthogonalLoop=1;jettySize=auto;html=1;exitX=0.5;exitY=1;exitDx=0;exitDy=0;" parent="1" source="c6J2E1PBe4xBJ-rvOWvV-3" edge="1">
          <mxGeometry relative="1" as="geometry">
            <mxPoint x="399.5" y="910" as="sourcePoint" />
            <mxPoint x="399.5" y="990" as="targetPoint" />
          </mxGeometry>
        </mxCell>
        <mxCell id="c6J2E1PBe4xBJ-rvOWvV-7" value="終了" style="strokeWidth=2;html=1;shape=mxgraph.flowchart.start_1;whiteSpace=wrap;" parent="1" vertex="1">
          <mxGeometry x="365" y="993" width="70" height="39" as="geometry" />
        </mxCell>
        <mxCell id="c6J2E1PBe4xBJ-rvOWvV-10" value="" style="edgeStyle=orthogonalEdgeStyle;rounded=0;orthogonalLoop=1;jettySize=auto;html=1;" parent="1" source="c6J2E1PBe4xBJ-rvOWvV-8" target="c6J2E1PBe4xBJ-rvOWvV-3" edge="1">
          <mxGeometry relative="1" as="geometry" />
        </mxCell>
        <mxCell id="c6J2E1PBe4xBJ-rvOWvV-8" value="Dairyテーブルから一覧データ取得をし、&lt;span style=&quot;background-color: initial;&quot;&gt;初期化した変数に代入&lt;/span&gt;" style="rounded=1;whiteSpace=wrap;html=1;" parent="1" vertex="1">
          <mxGeometry x="300" y="690" width="200" height="60" as="geometry" />
        </mxCell>
        <mxCell id="c6J2E1PBe4xBJ-rvOWvV-11" style="rounded=0;orthogonalLoop=1;jettySize=auto;html=1;entryX=1;entryY=0.5;entryDx=0;entryDy=0;exitX=-0.006;exitY=0.387;exitDx=0;exitDy=0;exitPerimeter=0;endArrow=none;endFill=0;" parent="1" source="c6J2E1PBe4xBJ-rvOWvV-12" edge="1">
          <mxGeometry relative="1" as="geometry">
            <mxPoint x="435" y="1010" as="targetPoint" />
          </mxGeometry>
        </mxCell>
        <mxCell id="c6J2E1PBe4xBJ-rvOWvV-12" value="戻り値：取得した一覧データ" style="text;html=1;align=left;verticalAlign=top;whiteSpace=wrap;rounded=0;fillColor=#f5f5f5;fontColor=#333333;strokeColor=#666666;" parent="1" vertex="1">
          <mxGeometry x="490" y="1015" width="160" height="25" as="geometry" />
        </mxCell>
      </root>
    </mxGraphModel>
  </diagram>
</mxfile>
